<svg aria-hidden="true" aria-label="A chart." style="overflow: hidden;" height="100" width="594"><defs id="defs"><clipPath id="_ABSTRACT_RENDERER_ID_0"><rect height="62" width="477" y="19" x="59"></rect></clipPath></defs><rect fill="#ffffff" stroke-width="0" stroke="none" height="100" width="594" y="0" x="0"></rect><g><text fill="#000000" stroke-width="0" stroke="none" font-weight="bold" font-size="11" font-family="Arial" y="13.35" x="59" text-anchor="start">benchmark, total runtime [seconds]</text></g><g><rect fill="#ffffff" fill-opacity="0" stroke-width="0" stroke="none" height="29" width="36" y="19" x="547"></rect><g><rect fill="#ffffff" fill-opacity="0" stroke-width="0" stroke="none" height="11" width="36" y="19" x="547"></rect><g><text fill="#222222" stroke-width="0" stroke="none" font-size="11" font-family="Arial" y="28.35" x="562" text-anchor="start">im...</text><rect fill="#ffffff" fill-opacity="0" stroke-width="0" stroke="none" height="11" width="21" y="19" x="562"></rect></g><rect fill="#3366cc" stroke-width="0" stroke="none" height="11" width="11" y="19" x="547"></rect></g><g><rect fill="#ffffff" fill-opacity="0" stroke-width="0" stroke="none" height="11" width="36" y="37" x="547"></rect><g><text fill="#222222" stroke-width="0" stroke="none" font-size="11" font-family="Arial" y="46.35" x="562" text-anchor="start">sort</text></g><rect fill="#dc3912" stroke-width="0" stroke="none" height="11" width="11" y="37" x="547"></rect></g></g><g><rect fill="#ffffff" fill-opacity="0" stroke-width="0" stroke="none" height="62" width="477" y="19" x="59"></rect><g clip-path="url(file:///tmp/79.html#_ABSTRACT_RENDERER_ID_0)"><g><rect fill="#cccccc" stroke-width="0" stroke="none" height="62" width="1" y="19" x="59"></rect><rect fill="#cccccc" stroke-width="0" stroke="none" height="62" width="1" y="19" x="178"></rect><rect fill="#cccccc" stroke-width="0" stroke="none" height="62" width="1" y="19" x="297"></rect><rect fill="#cccccc" stroke-width="0" stroke="none" height="62" width="1" y="19" x="416"></rect><rect fill="#cccccc" stroke-width="0" stroke="none" height="62" width="1" y="19" x="535"></rect></g><g><rect fill="#3366cc" stroke-width="0" stroke="none" height="5" width="1.2471200000000024" y="24" x="59.81178"></rect><rect fill="#3366cc" stroke-width="0" stroke="none" height="5" width="8" y="44" x="60"></rect><rect fill="#3366cc" stroke-width="0" stroke="none" height="5" width="126" y="64" x="60"></rect><rect fill="#dc3912" stroke-width="0" stroke="none" height="5" width="3" y="30" x="60"></rect><rect fill="#dc3912" stroke-width="0" stroke="none" height="5" width="27" y="50" x="60"></rect><rect fill="#dc3912" stroke-width="0" stroke="none" height="5" width="454" y="70" x="60"></rect></g><g><rect fill="#333333" stroke-width="0" stroke="none" height="62" width="1" y="19" x="59"></rect></g></g><g></g><g><g><text fill="#444444" stroke-width="0" stroke="none" font-size="11" font-family="Arial" y="94.35" x="59.5" text-anchor="middle">0</text></g><g><text fill="#444444" stroke-width="0" stroke="none" font-size="11" font-family="Arial" y="94.35" x="178.5" text-anchor="middle">100</text></g><g><text fill="#444444" stroke-width="0" stroke="none" font-size="11" font-family="Arial" y="94.35" x="297.5" text-anchor="middle">200</text></g><g><text fill="#444444" stroke-width="0" stroke="none" font-size="11" font-family="Arial" y="94.35" x="416.5" text-anchor="middle">300</text></g><g><text fill="#444444" stroke-width="0" stroke="none" font-size="11" font-family="Arial" y="94.35" x="535.5" text-anchor="middle">400</text></g><g><text fill="#222222" stroke-width="0" stroke="none" font-size="11" font-family="Arial" y="33.516666666666666" x="48" text-anchor="end">(A)</text></g><g><text fill="#222222" stroke-width="0" stroke="none" font-size="11" font-family="Arial" y="53.85" x="48" text-anchor="end">(B)</text></g><g><text fill="#222222" stroke-width="0" stroke="none" font-size="11" font-family="Arial" y="74.18333333333332" x="48" text-anchor="end">(C)</text></g></g></g><g></g></svg>